<svg width="50" height="50" viewBox="0 0 161 156" fill="none" xmlns="http://www.w3.org/2000/svg">
                            <path d="M157.516 156V3H78.5159V37.5M78.5159 37.5H13.5159C9.84926 38.1667 2.61593 41.6 3.01593 50C3.41593 58.4 3.18259 97.1667 3.01593 115.5C3.18259 119.833 5.91593 128.8 15.5159 130H110.016C113.516 129.333 120.816 125.5 122.016 115.5V46.5C122.183 43.5 120.016 37.5 110.016 37.5H78.5159ZM13.5159 61L26.5159 46.5" stroke="white" stroke-width="5"/>
                            <path d="M40.5159 48.5L12.5159 76" stroke="white" stroke-width="5"/>
                            <path d="M3.51593 116.5L120.016 114.5" stroke="white" stroke-width="5"/>
                            <path d="M46.0159 131V142H32.0159C28.3493 144 23.2159 149.1 32.0159 153.5H90.0159H154.516H158.016" stroke="white" stroke-width="5"/>
                            <path d="M46.5159 143H78.0159M78.0159 143V132M78.0159 143H90.0159C92.6826 144 97.2159 147.2 94.0159 152" stroke="white" stroke-width="5"/>
                            <path d="M103.516 138.5V146.5M89.0159 12.5V26H145.016V12.5H89.0159Z" stroke="white" stroke-width="5"/>
                            <path d="M115.016 139V147" stroke="white" stroke-width="5"/>
                            <path d="M125.016 138.5V146.5" stroke="white" stroke-width="5"/>
                            <path d="M137.016 139V146.5" stroke="white" stroke-width="5"/>
                            <path d="M147.516 138V147" stroke="white" stroke-width="5"/>
                            <circle cx="138.516" cy="43" r="6.5" stroke="white" stroke-width="5"/>
                            <circle cx="138.516" cy="65" r="6.5" stroke="white" stroke-width="5"/>
                            </svg>