<svg width="213" height="222" viewBox="0 0 213 222" fill="none" xmlns="http://www.w3.org/2000/svg">
<path d="M106.5 45L34 26.5L106.5 3L180.5 26.5L106.5 45Z" stroke="white" stroke-width="5"/>
<path d="M172 82V65H184.5V82H172Z" stroke="white" stroke-width="5"/>
<circle cx="178" cy="55" r="10" fill="white"/>
<path d="M178 47.1662V33H152.477V67.6828C136.993 79.2438 94.795 93.0843 56 67.6828V33.977" stroke="white" stroke-width="5"/>
<path d="M83 165H94.5V123L68.5 116.5L41 123V165H58.5M83 165V146.5M83 165H58.5M58.5 165V146.5" stroke="white" stroke-width="5"/>
<path d="M68.5 113.5C75.6403 113.5 80.5 106.432 80.5 99C80.5 91.5679 75.6403 84.5 68.5 84.5C61.3597 84.5 56.5 91.5679 56.5 99C56.5 106.432 61.3597 113.5 68.5 113.5Z" stroke="white" stroke-width="5"/>
<path d="M159 165H170.5V123L144.5 116.5L117 123V165H134.5M159 165V146.5M159 165H134.5M134.5 165V146.5" stroke="white" stroke-width="5"/>
<path d="M144.5 113.5C151.64 113.5 156.5 106.432 156.5 99C156.5 91.5679 151.64 84.5 144.5 84.5C137.36 84.5 132.5 91.5679 132.5 99C132.5 106.432 137.36 113.5 144.5 113.5Z" stroke="white" stroke-width="5"/>
<path d="M45 219H56.5V177L30.5 170.5L3 177V219H20.5M45 219V200.5M45 219H20.5M20.5 219V200.5" stroke="white" stroke-width="5"/>
<path d="M30.5 167.5C37.6403 167.5 42.5 160.432 42.5 153C42.5 145.568 37.6403 138.5 30.5 138.5C23.3597 138.5 18.5 145.568 18.5 153C18.5 160.432 23.3597 167.5 30.5 167.5Z" stroke="white" stroke-width="5"/>
<path d="M120 219H131.5V177L105.5 170.5L78 177V219H95.5M120 219V200.5M120 219H95.5M95.5 219V200.5" stroke="white" stroke-width="5"/>
<path d="M105.5 167.5C112.64 167.5 117.5 160.432 117.5 153C117.5 145.568 112.64 138.5 105.5 138.5C98.3597 138.5 93.5 145.568 93.5 153C93.5 160.432 98.3597 167.5 105.5 167.5Z" stroke="white" stroke-width="5"/>
<path d="M199 219H210.5V177L184.5 170.5L157 177V219H174.5M199 219V200.5M199 219H174.5M174.5 219V200.5" stroke="white" stroke-width="5"/>
<path d="M184.5 167.5C191.64 167.5 196.5 160.432 196.5 153C196.5 145.568 191.64 138.5 184.5 138.5C177.36 138.5 172.5 145.568 172.5 153C172.5 160.432 177.36 167.5 184.5 167.5Z" stroke="white" stroke-width="5"/>
</svg>
